<svg xmlns="http://www.w3.org/2000/svg" version="1.1" xmlns:xlink="http://www.w3.org/1999/xlink" xmlns:svgjs="http://svgjs.dev/svgjs" width="1500" height="818" viewBox="0 0 1500 818"><g transform="matrix(1,0,0,1,-0.9084522071641459,-0.7379302722505372)"><svg viewBox="0 0 396 216" data-background-color="#ffffff" preserveAspectRatio="xMidYMid meet" height="818" width="1500" xmlns="http://www.w3.org/2000/svg" xmlns:xlink="http://www.w3.org/1999/xlink"><g id="tight-bounds" transform="matrix(1,0,0,1,0.24008861730862918,0.19485689340601198)"><svg viewBox="0 0 395.52 215.60999176651302" height="215.60999176651302" width="395.52"><g><svg viewBox="0 0 395.52 215.60999176651302" height="215.60999176651302" width="395.52"><g><svg viewBox="0 0 395.52 215.60999176651302" height="215.60999176651302" width="395.52"><g id="textblocktransform"><svg viewBox="0 0 395.52 215.60999176651302" height="215.60999176651302" width="395.52" id="textblock"><g><svg viewBox="0 0 395.52 215.60999176651302" height="215.60999176651302" width="395.52"><path d="M394.594 46.244C392.735 23.864 387.435 17.642 387.435 17.642 371.165-5.409 350.86-0.441 332.619 2.871 300.414 3.006 268.339 7.929 236.208 10.57 168.767 10.973 100.749 4.348 33.643 20.686 27.339 25.699-6.54 21.671 1.121 49.109 3.129 60.523 10.456 73.19 10.232 83.664 11.236 85.499 12.631 81.292 13.226 83.933 15.309 91.049 18.711 87.692 21.501 91.9 17.614 103.135 20.403 112.49 23.062 122.292 18.377 124.844 12.371 123.635 9.675 132.095 9.396 138.227 7.89 137.063 6.235 136.795 5.026 136.616 2.59 137.287 2.999 139.212 4.394 145.792-1.594 149.596 2.162 156.042-0.422 163.024 3.948 169.067 3.353 176.632 3.278 178.153 3.687 179.451 4.338 179.809 7.22 181.734 3.018 185.494 3.464 189.567 33.029 217.408 65.104 198.161 95.394 210.963 103.259 202.011 97.346 214.141 100.489 212.261 102.943 210.068 104.728 219.154 107.499 214.007 107.927 212.529 107.276 209.038 108.8 209.71 109.6 210.068 110.307 209.978 110.418 207.919 110.586 204.831 109.117 206.755 108.726 205.144 112.947 196.998 111.906 216.379 115.866 215.573 115.68 213.201 114.528 209.799 116.889 210.247 119.232 206.845 119.306 204.025 121.389 211.679 121.463 213.335 121.835 214.499 122.43 215.305 128.938 206.979 135.409 218.259 142.233 214.499 146.417 210.381 150.433 216.737 154.672 215.17 156.16 213.917 157.666 211.679 159.098 215.439 176.632 216.245 195.319 212.887 211.943 215.573 256.364 210.56 303.836 217.632 350.674 211.008 361.719 208.456 373.192 204.831 383.958 201.921 383.958 201.921 392.679 193.954 392.679 158.145S394.538 126.813 394.817 98.301C395.096 69.788 396.398 68.624 394.538 46.244Z" opacity="1" fill="#ee3e38" data-fill-palette-color="tertiary"></path><g transform="matrix(1,0,0,1,55.76832,26.230666666666668)"><svg width="283.98335999999995" viewBox="2.66 -26.9 47.68000000000001 27.389999999999997" height="163.1486584331797" data-palette-color="#ffffff"><path d="M18.99-4.52L18.99-18.12Q18.99-20.48 17.59-21.89 16.19-23.29 13.45-23.29L13.45-23.29Q11.77-23.29 10.49-22.71 9.2-22.12 8.5-21.17 7.79-20.21 7.79-19.09L7.79-19.09 3.22-19.09Q3.22-21 4.52-22.79 5.81-24.58 8.17-25.74 10.52-26.9 13.72-26.9L13.72-26.9Q16.6-26.9 18.82-25.93 21.04-24.95 22.3-22.99 23.56-21.02 23.56-18.07L23.56-18.07 23.56-5.76Q23.56-4.44 23.79-2.95 24.02-1.46 24.49-0.39L24.49-0.39 24.49 0 19.73 0Q19.38-0.78 19.19-2.09 18.99-3.39 18.99-4.52L18.99-4.52ZM19.78-16.02L19.82-12.84 15.28-12.84Q11.43-12.84 9.33-11.62 7.23-10.4 7.23-7.96L7.23-7.96Q7.23-6.05 8.51-4.74 9.79-3.42 12.26-3.42L12.26-3.42Q14.33-3.42 15.92-4.3 17.5-5.18 18.43-6.47 19.36-7.76 19.43-8.96L19.43-8.96 21.39-6.79Q21.22-5.76 20.46-4.52 19.7-3.27 18.44-2.14 17.19-1 15.47-0.26 13.75 0.49 11.6 0.49L11.6 0.49Q8.91 0.49 6.9-0.55 4.88-1.59 3.77-3.37 2.66-5.15 2.66-7.32L2.66-7.32Q2.66-11.6 5.88-13.81 9.11-16.02 14.55-16.02L14.55-16.02 19.78-16.02ZM50.34-3.66L50.34 0 31.13 0 31.13-3.66 50.34-3.66ZM49.63-23.24L32.18 0 29.39 0 29.39-3.3 46.75-26.42 49.63-26.42 49.63-23.24ZM47.63-26.42L47.63-22.73 29.59-22.73 29.59-26.42 47.63-26.42Z" opacity="1" transform="matrix(1,0,0,1,0,0)" fill="#ffffff" class="wordmark-text-0" data-fill-palette-color="quaternary" id="text-0"></path></svg></g></svg></g></svg></g></svg></g><g></g></svg></g><defs></defs></svg><rect width="395.52" height="215.60999176651302" fill="none" stroke="none" visibility="hidden"></rect></g></svg></g></svg>